<svg width="100" height="100" xmlns="http://www.w3.org/2000/svg" xmlns:svg="http://www.w3.org/2000/svg">
 <g class="layer">
  <title>Layer 1</title>
  <g id="svg_1">
   <path d="m2,84l21,0l1.5,-18l-19.5,-4.5l-3,22.5z" fill="#4c4c4c" id="svg_2"/>
   <path d="m5.75,58.5l18.75,4.5l4.5,-15.75l-15.75,-8.25l-7.5,19.5z" fill="#4c4c4c" id="svg_3"/>
   <path d="m14.75,36l15,8.25l12,-8.25l-11.25,-12.75l-15.75,12.75z" fill="#4c4c4c" id="svg_4"/>
   <path d="m98.75,84l-21,0l-1.5,-18l19.5,-4.5l3,22.5z" fill="#4c4c4c" id="svg_5"/>
   <path d="m95,58.5l-18.75,4.5l-4.5,-15.75l15.75,-8.25l7.5,19.5z" fill="#4c4c4c" id="svg_6"/>
   <path d="m86,36l-15,8.25l-12,-8.25l11.25,-12.75l15.75,12.75z" fill="#4c4c4c" id="svg_7"/>
   <path d="m34.25,21l11.25,13.5l10.5,0l9.75,-13.5l-9.75,-3l-10.77,0l-10.98,3z" fill="#4c4c4c" id="svg_8"/>
   <path d="m2,84l21,0l1.5,-18l-19.5,-4.5l-3,22.5z" fill="#9c0000" id="svg_9"/>
   <path d="m5.75,58.5l18.75,4.5l4.5,-15.75l-15.75,-8.25l-7.5,19.5z" fill="#b50808" id="svg_10"/>
   <path d="m14.75,36l15,8.25l12,-8.25l-11.25,-12.75l-15.75,12.75z" fill="#c61818" id="svg_11"/>
   <path d="m98.75,84l-21,0l-1.5,-18l19.5,-4.5l3,22.5z" fill="#9c0000" id="svg_12"/>
   <path d="m95,58.5l-18.75,4.5l-4.5,-15.75l15.75,-8.25l7.5,19.5z" fill="#b50808" id="svg_13"/>
   <path d="m86,36l-15,8.25l-12,-8.25l11.25,-12.75l15.75,12.75z" fill="#c61818" id="svg_14"/>
   <path d="m34.25,21l11.25,13.5l10.5,0l9.75,-13.5l-9.75,-3l-10.77,0l-10.98,3z" fill="#ce3129" id="svg_15"/>
  </g>
 </g>
</svg>