<svg width="65" height="65" viewBox="0 0 65 65" fill="none" xmlns="http://www.w3.org/2000/svg">
<path d="M27.4941 1.23138C30.6309 -0.407112 34.3672 -0.407169 37.5039 1.23138L59.1709 12.5546C62.7538 14.4267 65 18.1431 65 22.1962V30.6337H50.0488C41.4318 30.6337 34.4493 23.6315 34.4492 14.9911V7.82025H30.5488V14.9911C30.5487 23.6314 23.5661 30.6336 14.9492 30.6337H7.79785V34.5439H14.9492C23.5662 34.544 30.5488 41.5505 30.5488 50.1865V65.0029C29.4968 64.8083 28.4686 64.4579 27.4941 63.9521L5.8291 52.622C2.24639 50.7521 0.000119803 47.0343 0 42.9814V22.1982C7.59021e-06 18.1451 2.24619 14.4289 5.8291 12.5546L27.4941 1.23138ZM64.9971 34.5439V42.9814C64.997 47.0344 62.7508 50.7521 59.168 52.622L37.5029 63.9521C36.5286 64.4557 35.5002 64.8083 34.4482 65.0029V50.1865H34.4463C34.4463 41.5505 41.429 34.5441 50.0459 34.5439H64.9971Z" fill="url(#paint0_linear_10842_4100)"/>
<defs>
<linearGradient id="paint0_linear_10842_4100" x1="65" y1="0.00286865" x2="0.000549319" y2="65.0029" gradientUnits="userSpaceOnUse">
<stop offset="0.15" stop-color="#A0A4EE"/>
<stop offset="0.8" stop-color="#596CED"/>
</linearGradient>
</defs>
</svg>
